<svg width="90" height="90" viewBox="0 0 90 90" xmlns="http://www.w3.org/2000/svg" fill="none"><path d="M4.003 4.454h81.76V85.46H4.004V4.453zM.288 89.242h89.21V.67H.287v88.572zm58.43-56.992c0-.31.108-.455.447-.455h5.842c.303 0 .446.11.446.455v29.87c0 .31-.07.454-.446.454h-5.77c-.375 0-.483-.182-.483-.49V32.25h-.035zm-.41-8.605c0-2.42 1.68-3.856 3.787-3.856 2.27 0 3.787 1.545 3.787 3.855 0 2.492-1.59 3.857-3.86 3.857-2.142.018-3.714-1.346-3.714-3.857zm-16.72 21.047c-1.036-4.202-3.5-13.352-4.43-17.79h-.072c-.786 4.42-2.75 11.915-4.305 17.79h8.808zm-10.325 6.13l-2.93 11.352c-.07.31-.178.382-.553.382h-5.467c-.375 0-.446-.11-.375-.564l10.557-37.62c.18-.672.304-1.29.376-3.146 0-.273.108-.382.304-.382h7.806c.27 0 .376.073.447.382l11.826 40.84c.07.308 0 .49-.304.49h-6.164c-.304 0-.482-.073-.554-.346l-3.054-11.387H31.263z" fill="#FF7F18"/></svg>