<svg width="59" height="90" viewBox="0 0 59 90" xmlns="http://www.w3.org/2000/svg" fill="none"><path d="M15.05 89.66c8.04 0 14.56-6.64 14.56-14.825V60.01H15.05C7.014 60.01.494 66.65.494 74.835c0 8.186 6.52 14.826 14.558 14.826z" fill="#0ACF83"/><path d="M.493 45.166c0-8.186 6.52-14.826 14.558-14.826h14.56v29.67H15.05C7.014 59.99.494 53.35.494 45.165z" fill="#A259FF"/><path d="M.493 15.496C.493 7.31 7.013.67 15.05.67h14.56v29.67H15.05C7.014 30.34.494 23.681.494 15.496z" fill="#F24E1E"/><path d="M29.628.67h14.56c8.037 0 14.557 6.64 14.557 14.826S52.225 30.32 44.187 30.32h-14.56V.67z" fill="#FF7262"/><path d="M58.745 45.166c0 8.186-6.52 14.825-14.558 14.825-8.04 0-14.56-6.64-14.56-14.825 0-8.185 6.52-14.825 14.56-14.825 8.038 0 14.558 6.64 14.558 14.826z" fill="#1ABCFE"/></svg>