<svg width="90" height="90" viewBox="0 0 90 90" xmlns="http://www.w3.org/2000/svg" fill="none"><path d="M3.934 4.426H85.6V85.28H3.933V4.426zM.22 89.06h89.074V.646H.22V89.06zM60.29 36.93c-2.928 0-3.927 1.51-3.927 2.763 0 1.363.66 2.307 4.606 4.38 5.82 2.87 7.64 5.63 7.64 9.665 0 6.05-4.534 9.303-10.657 9.303-3.232 0-6.016-.672-7.605-1.616-.268-.11-.303-.31-.303-.6v-5.578c0-.382.178-.49.446-.31 2.338 1.545 5.016 2.236 7.46 2.236 2.93 0 4.16-1.254 4.16-2.944 0-1.362-.856-2.56-4.605-4.542-5.266-2.562-7.462-5.16-7.462-9.52.002-4.87 3.75-8.922 10.248-8.922 3.195 0 5.426.49 6.64 1.054.303.182.375.49.375.763v5.18c0 .308-.18.49-.553.38-1.643-1.053-4.053-1.69-6.462-1.69zM28.37 41.42c.858.072 1.518.072 3 .072 4.338 0 8.425-1.545 8.425-7.56 0-4.796-2.927-7.212-7.872-7.212-1.48 0-2.89.073-3.57.11l.018 14.59zm-6.62-20.06c0-.273.516-.454.82-.454 2.374-.11 5.908-.182 9.568-.182 10.28 0 14.298 5.74 14.298 13.064 0 9.593-6.837 13.718-15.227 13.718-1.41 0-1.893-.073-2.892-.073v14.5c0 .308-.108.454-.447.454h-5.675c-.303 0-.446-.11-.446-.455V21.36z" fill="#31C5F0"/></svg>