<svg width="40" height="41" viewBox="0 0 40 41" xmlns="http://www.w3.org/2000/svg" fill="none"><path d="M30.664 7.902l.305-.384-.38-.313C27.676 4.798 23.974 3.36 19.923 3.36c-1.42 0-2.795.2-4.098.525l-.727.18.447.603c1.39 1.87 3.388 4.696 5.78 9.122l.207.382.41-.152c4.526-1.68 7.24-4.252 8.724-6.118zm-17.3-2.758l-.246-.323-.366.174c-4.496 2.12-7.903 6.172-9.247 11.12l-.167.61.633.02c2.477.078 8.395-.04 14.953-1.796l.62-.165-.312-.56c-2.543-4.584-4.681-7.518-5.867-9.08zm19.453 4.26l-.388-.462-.382.466c-1.656 2.02-4.532 4.647-9.084 6.428l-.506.198.24.488c.98 1.998 1.933 4.128 2.8 6.427l.144.378.4-.06c3.293-.504 6.338-.504 8.637-.324.558.046.92.1 1.34.16l.274.04.512.07.055-.513c.07-.63.108-1.263.108-1.918 0-4.353-1.578-8.322-4.15-11.38zM20.67 17.03l-.185-.37-.4.113c-7.712 2.19-14.507 2.124-16.623 2.04l-.482-.02-.037.48-.002.034c-.036.476-.073.965-.073 1.485 0 5.234 2.264 9.906 5.835 13.102l.373.334.333-.373c.895-1 2.096-2.276 3.556-3.608h.002c2.746-2.533 6.28-5.212 10.128-6.38l.517-.158-.195-.504c-.862-2.208-1.79-4.26-2.745-6.176zm9.49 7.897h-.006c-1.01.05-2.087.146-3.182.292l-.595.078.186.57c.924 2.845 1.688 5.858 2.18 8.99l.126.79.654-.456c3.186-2.22 5.596-5.516 6.72-9.386l.164-.57-.59-.066c-1.46-.165-3.31-.33-5.658-.243zm-5.656 1.185l-.154-.453-.46.132c-3.38.984-6.918 3.535-9.598 5.996-1.296 1.178-2.341 2.297-3.18 3.213l-.414.452.524.315c2.545 1.535 5.5 2.438 8.69 2.438 2.394 0 4.652-.506 6.714-1.397l.348-.15-.05-.376c-.485-3.574-1.34-6.98-2.42-10.17zM.868 20.782c0-10.753 8.567-19.5 19.054-19.5 10.487 0 19.054 8.747 19.054 19.5s-8.567 19.5-19.054 19.5C9.435 40.28.868 31.534.868 20.78z" fill="#070707" stroke="#070707"/></svg>