<svg width="41" height="40" viewBox="0 0 41 40" xmlns="http://www.w3.org/2000/svg" fill="none"><g clip-path="url(#a)" fill="#070707" stroke="#070707" stroke-width=".5"><path d="M34.32 0H5.96C2.72 0 .085 2.628.085 5.86v28.28C.085 37.37 2.72 40 5.96 40h28.36c3.24 0 5.876-2.63 5.876-5.86V5.86C40.196 2.627 37.56 0 34.32 0zm3.526 34.14c0 1.94-1.582 3.516-3.526 3.516H5.96c-1.944 0-3.525-1.577-3.525-3.515V5.86c0-1.94 1.58-3.516 3.525-3.516h28.36c1.944 0 3.526 1.577 3.526 3.515v28.28zM18.965 16.484c0-2.585-2.108-4.687-4.7-4.687h-7.05v16.406h7.05c2.592 0 4.7-2.102 4.7-4.687 0-1.4-.618-2.656-1.596-3.516.977-.86 1.595-2.117 1.595-3.516zm-2.35 7.032c0 1.292-1.054 2.343-2.35 2.343h-4.7V21.17h4.7c1.296 0 2.35 1.05 2.35 2.344zm-7.05-4.688V14.14h4.7c1.296 0 2.35 1.052 2.35 2.344 0 1.293-1.054 2.344-2.35 2.344h-4.7zM27.19 16.484c-3.24 0-5.875 2.63-5.875 5.86 0 3.23 2.636 5.86 5.876 5.86 2.092 0 4.042-1.123 5.09-2.93L30.245 24.1c-.63 1.085-1.8 1.76-3.054 1.76-1.53 0-2.838-.98-3.323-2.344h9.2v-1.172c0-3.23-2.636-5.86-5.876-5.86zm-3.323 4.688c.485-1.364 1.792-2.344 3.324-2.344 1.533 0 2.84.98 3.325 2.344h-6.648zM22.49 11.797h9.402v2.344h-9.4v-2.343z"/></g><defs><clipPath id="a"><path fill="#fff" d="M.085 0h40.11v40H.086z"/></clipPath></defs></svg>