<svg width="41" height="41" viewBox="0 0 41 41" xmlns="http://www.w3.org/2000/svg" fill="none"><path d="M34.575.643h-28.4C2.932.643.293 3.275.293 6.51v28.324c0 3.235 2.64 5.868 5.884 5.868h28.4c3.243 0 5.883-2.633 5.883-5.868V6.51c0-3.235-2.64-5.867-5.885-5.867zm3.53 34.19c0 1.942-1.583 3.52-3.53 3.52h-28.4c-1.946 0-3.53-1.578-3.53-3.52V6.512c0-1.94 1.584-3.52 3.53-3.52h28.4c1.947 0 3.53 1.58 3.53 3.52v28.324z" fill="#070707" stroke="#070707" stroke-width=".5"/><mask id="a"><path d="M31.42 29.68h-4.312v-7.203c0-.497-.036-.988-.16-1.472-.516-2-2.742-1.882-3.628-.935-.445.476-.736 1.014-.748 1.68-.002.157-.012.316-.012.474v7.453h-4.304V16.313h4.302v1.793l.034.015c.03-.04.062-.082.092-.125.432-.598.927-1.13 1.585-1.488.735-.402 1.53-.536 2.355-.512.895.026 1.744.227 2.51.71.98.616 1.58 1.52 1.93 2.603.272.845.36 1.716.362 2.598.002 2.54 0 5.077 0 7.616 0 .05-.004.1-.007.157z"/></mask><path d="M31.42 29.68h-4.312v-7.203c0-.497-.036-.988-.16-1.472-.516-2-2.742-1.882-3.628-.935-.445.476-.736 1.014-.748 1.68-.002.157-.012.316-.012.474v7.453h-4.304V16.313h4.302v1.793l.034.015c.03-.04.062-.082.092-.125.432-.598.927-1.13 1.585-1.488.735-.402 1.53-.536 2.355-.512.895.026 1.744.227 2.51.71.98.616 1.58 1.52 1.93 2.603.272.845.36 1.716.362 2.598.002 2.54 0 5.077 0 7.616 0 .05-.004.1-.007.157z" fill="#070707"/><path d="M31.42 29.68v.03h.03v-.03h-.03zm-4.312 0h-.03v.03h.03v-.03zm0-7.203h.03-.03zm-.16-1.472l.03-.008-.03.008zm-3.628-.935l.023.02-.023-.02zm-.748 1.68l-.03-.002h.03zm-.012.474h.03-.03zm0 7.453v.03h.03v-.03h-.03zm-4.304 0h-.03v.03h.03v-.03zm0-13.365v-.03h-.03v.03h.03zm4.302 0h.03v-.03h-.03v.03zm0 1.793h-.03v.02l.017.008.012-.028zm.034.015l-.012.028.022.01.015-.02-.025-.018zm.092-.125l.025.018-.026-.018zm1.585-1.488l.014.027-.015-.027zm2.355-.512v-.03.03zm2.51.71l.016-.027-.015.026zm1.93 2.603l-.03.01.03-.01zm.362 2.598h.03-.03zm0 7.616h-.03.03zm-.007.126H27.102v.06H31.43v-.06zm-4.28.03V29.48h-.062V29.68h.06zm0-.198v-7.003h-.062v7.003h.06zm0-7.003c0-.498-.038-.992-.163-1.48l-.06.015c.124.482.16.97.16 1.465h.062zm-.163-1.48c-.26-1.012-.957-1.49-1.7-1.595-.74-.103-1.53.166-1.98.647l.046.04c.435-.465 1.203-.728 1.925-.627.72.1 1.395.563 1.65 1.55l.06-.016zm-3.68-.948c-.448.48-.743 1.024-.755 1.698l.06.002c.013-.656.3-1.187.74-1.66l-.044-.04zm-.755 1.698c-.003.156-.012.318-.012.476h.06c0-.16.01-.314.013-.474l-.06-.002zm-.012.476v7.248h.06v-7.248h-.06zm0 7.248V29.68h.06V29.47h-.06zm.03.175H18.245v.06H22.573v-.06zm-4.273.03V16.31h-.062V29.677h.06zm-.03-13.334H22.57v-.06H18.25v.06zm4.27-.03V18.11h.06V16.318h-.06zm.018 1.82l.035.015.024-.056-.034-.015-.025.056zm.072.006l.092-.127-.05-.035c-.03.042-.06.082-.093.124l.05.037zm.092-.127c.43-.597.92-1.123 1.574-1.48l-.03-.053c-.663.362-1.162.897-1.594 1.498l.05.035zm1.574-1.48c.73-.397 1.518-.53 2.34-.508l.002-.06c-.83-.025-1.63.11-2.37.515l.028.054zm2.34-.508c.89.026 1.735.227 2.494.705l.033-.052c-.77-.485-1.625-.688-2.524-.714l-.002.06zm2.494.705c.974.613 1.568 1.51 1.917 2.587l.058-.018c-.352-1.09-.953-2-1.942-2.622l-.032.052zm1.917 2.587c.27.84.36 1.71.36 2.59h.063c0-.885-.09-1.76-.365-2.608l-.058.017zm.36 2.59c.003 2.538.002 5.076.002 7.615h.06c.002-2.538.003-5.077 0-7.616h-.06zm.002 7.615c0 .05-.005.096-.008.155l.06.003c.003-.055.008-.107.008-.158h-.06z" fill="#070707" mask="url(#a)"/><path d="M15.61 29.67H11.342V16.324H15.62V29.664zM13.67 9.672c.67 0 1.24.236 1.645.643.404.406.643.982.645 1.66.002.668-.238 1.24-.648 1.643-.41.403-.99.64-1.675.64-1.332.002-2.28-.95-2.284-2.29-.002-1.34.96-2.295 2.316-2.296z" fill="#070707" stroke="#070707" stroke-width=".031"/></svg>