<svg width="90" height="90" viewBox="0 0 90 90" xmlns="http://www.w3.org/2000/svg" fill="none"><path d="M4.07 4.454h81.76V85.46H4.07V4.453zM.355 89.242h89.21V.67H.354v88.572zm63.11-45.878c1.894 0 2.573 0 2.752-.072 0-.273.07-.455.07-.637 0-2.038-.963-5.82-4.822-5.82-3.572 0-5.09 3.182-5.466 6.548h7.466v-.02zM55.93 48.55c.07 5.11 2.447 8.55 8.11 8.55 2.197 0 4.09-.31 6.055-1.166.268-.11.447-.072.447.273v4.73c0 .382-.107.564-.375.764-1.965.983-4.43 1.438-7.467 1.438-9.807 0-13.487-7.386-13.487-15.59 0-8.931 4.538-16.244 12.523-16.244 8.11 0 10.933 6.93 10.933 12.57 0 1.82-.108 3.292-.304 4.02-.072.31-.18.418-.482.49-.75.11-2.93.274-6.2.274h-9.735v-.11h-.017zM35.992 44.69c-1.036-4.202-3.573-13.352-4.5-17.79h-.073c-.787 4.42-2.823 11.915-4.342 17.79h8.914zm-10.432 6.13L22.63 62.14c-.07.31-.178.418-.553.418h-5.485c-.375 0-.446-.11-.375-.564L26.775 24.41c.178-.674.303-1.22.375-3.11 0-.274.107-.383.303-.383h7.807c.268 0 .375.072.446.382l11.808 40.765c.07.31 0 .49-.304.49h-6.127c-.303 0-.482-.108-.554-.38l-3.055-11.352H25.56z" fill="#D8A1FF"/></svg>