<svg width="40" height="41" viewBox="0 0 40 41" xmlns="http://www.w3.org/2000/svg" fill="none"><path d="M12.166 1.293h.5v-.01H28.57c5.966 0 10.848 4.985 10.848 11.112V29.17c0 6.127-4.883 11.11-10.838 11.11H12.166C6.2 40.28 1.31 35.306 1.31 29.19V12.405c0-6.127 4.89-11.112 10.856-11.112zm-8.848 11.12V29.2c0 4.986 3.928 9.017 8.848 9.017H28.58c4.904 0 8.83-4.032 8.83-9.036V12.404c0-5.004-3.927-9.036-8.84-9.036H12.167c-4.913 0-8.838 4.03-8.848 9.044zm28.084-3.93c0-.59.454-1.038 1.005-1.038.55 0 1.004.448 1.004 1.038 0 .59-.453 1.038-1.003 1.038-.55 0-1.004-.447-1.004-1.037zM10.345 20.787c0-5.656 4.525-10.266 10.03-10.266 5.504 0 10.03 4.61 10.03 10.267-.002 5.656-4.526 10.266-10.03 10.266-5.505 0-10.03-4.61-10.03-10.266zm18.05 0c0-4.534-3.56-8.19-8.02-8.19-4.46 0-8.021 3.656-8.021 8.19 0 4.534 3.56 8.19 8.02 8.19 4.46 0 8.02-3.656 8.02-8.19z" fill="#070707" stroke="#070707"/></svg>