<svg width="21" height="20" viewBox="0 0 21 20" xmlns="http://www.w3.org/2000/svg" fill="none"><path d="M9.603.86c.3-.92 1.602-.92 1.902 0l1.75 5.374c.135.412.518.69.95.69h5.662c.97 0 1.372 1.24.587 1.81L15.88 12.05c-.353.253-.5.705-.365 1.118l1.748 5.367c.3.92-.753 1.688-1.537 1.12L11.14 16.33c-.35-.254-.823-.254-1.173 0L5.38 19.654c-.783.57-1.836-.198-1.536-1.12l1.748-5.366c.135-.412-.012-.865-.364-1.12L.653 8.735c-.785-.57-.382-1.81.587-1.81H6.9c.434 0 .818-.278.952-.69L9.602.86z" fill="#E5E5E5"/></svg>