<svg width="22" height="20" viewBox="0 0 22 20" xmlns="http://www.w3.org/2000/svg" fill="none"><path d="M10.085.86c.3-.92 1.6-.92 1.9 0l1.752 5.374c.134.412.518.69.95.69h5.662c.968 0 1.37 1.24.585 1.81l-4.574 3.315c-.35.253-.498.705-.363 1.118l1.748 5.367c.3.92-.753 1.688-1.537 1.12l-4.586-3.323c-.35-.254-.823-.254-1.173 0l-4.587 3.322c-.784.57-1.837-.198-1.537-1.12l1.748-5.366c.135-.412-.012-.865-.364-1.12L1.135 8.735c-.785-.57-.382-1.81.587-1.81h5.66c.434 0 .817-.278.95-.69L10.085.86z" fill="#070707"/></svg>